<svg width="119" height="56" viewBox="0 0 119 56" fill="none" xmlns="http://www.w3.org/2000/svg">
<path d="M42.2246 1.0545H32.8516V25.5807H36.4897V16.7193H42.253C46.7202 16.7193 50.25 13.2637 50.25 8.87272C50.1959 4.40233 46.7772 1.0545 42.2274 1.0545H42.2246ZM42.2246 4.64896C44.706 4.64896 46.4695 6.43201 46.4695 8.87272C46.4695 10.9846 45.008 13.0965 42.2246 13.0965H36.4612V4.64896H42.2246Z" fill="#4CA928"/>
<path d="M67.3976 11.4523C62.959 10.6841 61.5516 9.86205 61.5516 7.99679C61.5516 4.87007 64.8877 4.40234 66.8734 4.40234C68.2238 4.40234 71.3947 4.67731 72.03 7.36465L72.1952 7.99679L75.6681 6.78919L75.5028 6.23925C74.4829 3.00198 71.01 0.807892 66.8734 0.807892C63.8393 0.807892 61.4148 1.62997 59.8422 3.2486C58.5744 4.51006 57.9135 6.23925 57.9391 7.99396C57.9933 12.9604 62.543 14.2219 66.7623 14.9618C71.6425 15.8405 72.8562 16.5265 72.8562 18.474C72.8562 21.4646 69.2181 22.2612 67.2865 22.2612C64.0045 22.2612 61.6342 21.1103 60.808 19.1061L60.5886 18.5845L57.1699 19.7638L57.3893 20.3393C58.3551 23.0011 61.5259 25.8812 67.3691 25.8812C69.7394 25.8812 71.973 25.249 73.5997 24.0698C75.5028 22.6978 76.5227 20.8042 76.5227 18.4995C76.4942 12.9576 70.5685 11.9711 67.3976 11.4495V11.4523Z" fill="#4CA928"/>
<path d="M88.7101 1.0545H85.0977V25.5807H88.7101V1.0545Z" fill="#4CA928"/>
<path d="M107.348 11.4523C102.909 10.6841 101.502 9.86205 101.502 7.99679C101.502 4.87007 104.838 4.40234 106.824 4.40234C108.174 4.40234 111.345 4.67731 111.98 7.36465L112.146 7.99679L115.618 6.78919L115.453 6.23925C114.462 3.00198 110.986 0.807892 106.852 0.807892C103.818 0.807892 101.394 1.62997 99.8211 3.2486C98.5533 4.51006 97.8923 6.23925 97.918 7.99396C97.9721 12.9604 102.522 14.2219 106.77 14.9618C111.65 15.8405 112.863 16.5265 112.863 18.474C112.863 21.4646 109.225 22.2612 107.294 22.2612C104.012 22.2612 101.642 21.1103 100.815 19.1061L100.596 18.5845L97.1772 19.7638L97.3966 20.3393C98.3624 23.0011 101.533 25.8812 107.376 25.8812C109.747 25.8812 111.98 25.249 113.607 24.0698C115.51 22.6978 116.53 20.8042 116.53 18.4995C116.447 12.9576 110.519 11.9711 107.348 11.4495V11.4523Z" fill="#4CA928"/>
<path d="M3.78909 22.3718L2.5498 25.6091H6.52122C6.71495 25.3341 6.93431 25.0336 7.21066 24.787C8.75478 23.4688 12.9741 20.6454 18.9825 22.1252L20.2787 25.6091H24.2501L21.7402 18.9701C14.2675 17.9014 9.96843 18.7518 3.79194 22.3718H3.78909Z" fill="#4CA928"/>
<path d="M13.4126 7.17187L16.7772 16.1693C18.1276 16.1977 19.4524 16.2799 20.7743 16.4443L14.9568 1.0545H11.897L5.05957 18.9701C6.52107 18.2018 8.09369 17.598 9.69194 17.1048L13.4126 7.17471V7.17187Z" fill="#4CA928"/>
<path d="M30.751 34.8078V33.7107C30.751 33.5378 30.8678 33.4216 31.0416 33.4216H32.2609C32.4347 33.4216 32.5515 33.5378 32.5515 33.7107V34.8078C32.5515 34.9807 32.4347 35.0969 32.2609 35.0969H31.0416C30.9248 35.0969 30.751 35.0402 30.751 34.8078Z" fill="#4CA928"/>
<path d="M7.48123 38.0422V41.4496C7.48123 41.6225 7.36442 41.7387 7.19064 41.7387H6.4955C6.32171 41.7387 6.20491 41.6225 6.20491 41.4496V41.1604C5.79751 41.6225 5.33313 41.8521 4.52119 41.8521C3.47563 41.8521 2.54688 41.2171 2.54688 40.0634C2.54688 38.8501 3.47563 38.2747 4.52119 38.2747C5.27615 38.2747 5.79751 38.5043 6.20491 38.9097V38.218C6.20491 37.4668 5.74053 37.1209 5.15935 37.1209C4.69497 37.1209 4.2306 37.3506 4.11379 37.7559C4.05681 37.9288 3.99698 37.9855 3.8232 37.9855H3.12806C2.95427 37.9855 2.83747 37.8693 2.83747 37.6964C3.01125 36.5993 3.88303 35.9644 5.09952 35.9644C6.49265 35.8481 7.47838 36.5993 7.47838 38.0422M6.25904 40.0067C6.25904 39.5446 5.79466 39.1988 5.03969 39.1988C4.28473 39.1988 3.93716 39.6042 3.93716 40.0067C3.93716 40.4688 4.34455 40.8146 5.03969 40.8146C5.73483 40.8713 6.25904 40.4688 6.25904 40.0067Z" fill="#4CA928"/>
<path d="M13.5749 38.0422V41.5063C13.5749 41.6792 13.4581 41.7954 13.2843 41.7954H12.5293C12.3556 41.7954 12.2387 41.6792 12.2387 41.5063V38.1584C12.2387 37.4072 11.7744 37.0614 11.1932 37.0614C10.555 37.0614 9.97385 37.4668 9.97385 38.5043V41.5063C9.97385 41.6792 9.85704 41.7954 9.68325 41.7954H8.92829C8.7545 41.7954 8.6377 41.6792 8.6377 41.5063V36.2507C8.6377 36.0777 8.7545 35.9615 8.92829 35.9615H9.68325C9.85704 35.9615 9.97385 36.0777 9.97385 36.2507V36.656C10.3812 36.1373 10.9026 35.9048 11.6576 35.9048C12.7031 35.8481 13.5721 36.5965 13.5721 38.0422" fill="#4CA928"/>
<path d="M22.3387 38.7934V39.1988C22.3387 39.3717 22.1649 39.4879 21.9911 39.4879H18.1023C18.333 40.1796 18.8573 40.4688 19.4356 40.4688C19.7832 40.4688 20.0737 40.3525 20.2475 40.1796C20.3643 40.0634 20.4213 40.0067 20.6549 40.0067H21.7575C21.9313 40.0067 22.105 40.1796 21.9882 40.3525C21.5239 41.3929 20.5951 41.8549 19.4356 41.8549C17.5211 41.8549 16.3018 40.5283 16.3018 38.853C16.3018 37.1776 17.5781 35.851 19.3786 35.851C21.1193 35.7347 22.3387 37.1209 22.3387 38.7963M20.598 38.218C20.4242 37.583 19.9028 37.3505 19.3786 37.3505C18.7404 37.3505 18.2761 37.6964 18.1023 38.218H20.598Z" fill="#4CA928"/>
<path d="M25.1216 35.9048H25.8766C26.0504 35.9048 26.1672 36.0211 26.1672 36.194V37.2343C26.1672 37.4072 26.0504 37.5235 25.8766 37.5235H25.1216V41.2767C25.1216 41.4496 25.0048 41.5658 24.8311 41.5658H23.6715C23.4977 41.5658 23.3809 41.4496 23.3809 41.2767V37.5235H22.9166C22.7428 37.5235 22.626 37.4072 22.626 37.2343V36.194C22.626 36.0211 22.7428 35.9048 22.9166 35.9048H23.3809C23.3809 34.4024 24.1359 33.4216 25.9336 33.4216C26.1074 33.4216 26.2242 33.5378 26.2242 33.7107V34.7511C26.2242 34.924 26.1074 35.0402 25.9336 35.0402C25.4122 35.0969 25.1216 35.3861 25.1216 35.9077" fill="#4CA928"/>
<path d="M29.0679 35.9048H29.8229C29.9967 35.9048 30.1135 36.0211 30.1135 36.194V37.2343C30.1135 37.4072 29.9967 37.5235 29.8229 37.5235H29.0679V41.2767C29.0679 41.4496 28.9511 41.5658 28.7773 41.5658H27.6178C27.444 41.5658 27.3272 41.4496 27.3272 41.2767V37.5235H26.8629C26.6891 37.5235 26.5723 37.4072 26.5723 37.2343V36.194C26.5723 36.0211 26.6891 35.9048 26.8629 35.9048H27.3272C27.3272 34.4024 28.0822 33.4216 29.8799 33.4216C30.0537 33.4216 30.1705 33.5378 30.1705 33.7107V34.7511C30.1705 34.924 30.0537 35.0402 29.8799 35.0402C29.2987 35.0969 29.0679 35.3861 29.0679 35.9077" fill="#4CA928"/>
<path d="M30.751 41.39V36.194C30.751 36.021 30.8678 35.9048 31.0416 35.9048H32.2011C32.3749 35.9048 32.4917 36.021 32.4917 36.194V41.39C32.4917 41.563 32.3749 41.6792 32.2011 41.6792H31.0416C30.8678 41.6792 30.751 41.563 30.751 41.39Z" fill="#4CA928"/>
<path d="M39.3976 39.831C38.9902 41.0442 37.8877 41.8521 36.5544 41.8521C34.8137 41.8521 33.4775 40.5255 33.4775 38.8501C33.4775 37.1748 34.8108 35.8481 36.5544 35.8481C37.8877 35.8481 39.0501 36.656 39.3976 37.8693C39.4546 38.0422 39.3406 38.2152 39.1669 38.2152H37.8905C37.7168 38.2152 37.6598 38.1585 37.543 38.0422C37.3692 37.7531 37.0216 37.5802 36.5572 37.5802C35.8023 37.5802 35.2239 38.0989 35.2239 38.9068C35.2239 39.7147 35.7453 40.2335 36.5572 40.2335C36.9646 40.2335 37.3122 40.0606 37.543 39.8281C37.6598 39.6552 37.7168 39.6552 37.8905 39.6552H39.1669C39.3976 39.4823 39.4574 39.5985 39.3976 39.8281" fill="#4CA928"/>
<path d="M43.8077 35.9048H45.084C45.2578 35.9048 45.4316 36.021 45.3147 36.2507L42.7621 43.757C42.7051 43.93 42.5883 43.9867 42.4145 43.9867H41.1382C40.9644 43.9867 40.7906 43.8704 40.9074 43.6408L41.6026 41.563L39.5713 36.2507C39.5143 36.0777 39.5713 35.9048 39.8021 35.9048H41.0784C41.2522 35.9048 41.369 36.021 41.426 36.1344L42.5285 39.1959L43.4572 36.194C43.574 35.9643 43.688 35.9048 43.8048 35.9048" fill="#4CA928"/>
<path d="M91.2173 37.4072C90.5791 37.4072 90.1147 37.8693 90.1147 38.5043C90.1147 39.1393 90.5791 39.6013 91.2173 39.6013C91.8554 39.6013 92.3198 39.1393 92.3198 38.5043C92.3198 37.8693 91.7985 37.4072 91.2173 37.4072Z" fill="#4CA928"/>
<path d="M114.313 34.3457C113.618 33.9403 112.803 33.5945 111.818 33.4783C111.761 33.4783 111.701 33.4783 111.644 33.4216V31.9787C111.644 31.3437 111.179 30.825 110.484 30.825H109.729V29.3225C109.729 29.2063 109.786 29.1496 109.903 29.1496H110.658V27.823H109.903C109.091 27.823 108.393 28.2283 108.393 29.3254V30.8278H107.986C107.521 30.8278 107.057 31.1736 106.94 31.579L106.185 33.6569C105.373 33.8298 104.502 34.0622 103.806 34.3485C103.168 34.5782 102.587 34.8106 102.066 35.0997L100.325 34.0594C100.208 34.0027 100.151 34.0027 100.094 34.0027C99.8635 34.0027 99.6299 34.1756 99.6299 34.4648V36.8318C99.1655 37.2938 98.8749 37.8721 98.8749 38.3342H97.365L97.7125 37.6425C97.8293 37.4129 97.7125 37.2371 97.4818 37.0075C97.1342 36.7779 96.496 36.7184 96.1485 36.8913C95.8579 37.0642 95.8009 37.3534 96.0317 37.6425L97.0174 38.5666L96.496 39.7799C96.3223 40.1257 96.3792 40.5311 96.7268 40.8203C97.1912 41.2823 98.1769 41.4552 98.6413 40.9932C98.9889 40.5878 98.9319 40.069 98.4675 39.6665L97.7125 38.9153H98.9889C99.1057 39.3774 99.3963 39.7827 99.7438 40.242V42.609C99.7438 42.8981 99.9746 43.071 100.208 43.071C100.325 43.071 100.382 43.071 100.439 43.0143L102.18 41.974C102.644 42.2631 103.282 42.4928 103.92 42.7252C105.14 43.1873 106.473 43.5331 107.983 43.7655H108.04C108.678 43.8818 109.316 43.9385 109.954 43.9385C110.709 43.9385 111.464 43.8818 112.103 43.7655C113.031 43.5926 113.843 43.3035 114.598 42.8981C116.282 41.974 117.268 40.3582 117.268 38.5666C116.977 37.0075 115.991 35.2755 114.308 34.3514L114.313 34.3457ZM115.59 38.6772C115.59 39.7175 115.125 40.5821 114.256 41.2766C113.735 41.7387 113.097 42.0279 112.282 42.317C110.077 42.952 107.581 42.7791 104.507 41.682C100.445 40.1796 100.328 38.9096 100.328 38.7962V38.68C100.328 38.5071 100.502 37.2938 104.1 35.9076C104.274 35.851 104.39 35.7914 104.564 35.7347C105.55 35.3294 106.539 35.1564 107.35 34.9835L108.279 32.4436H108.336V32.3869H110.311V34.8106C111.006 34.8673 111.704 34.9835 112.342 35.1564C114.49 35.7347 115.533 37.0614 115.592 38.68L115.59 38.6772Z" fill="#4CA928"/>
<path d="M108.336 32.3245L107.351 34.8645H107.408L108.336 32.3245Z" fill="#4CA928"/>
<path d="M104.564 41.5629C100.502 40.1201 100.385 38.7906 100.385 38.6772V38.561C100.385 38.388 100.559 37.2343 104.157 35.7886C100.502 37.1152 100.385 38.388 100.385 38.561V38.6772C100.328 38.7934 100.502 40.1201 104.564 41.5629C107.581 42.66 110.134 42.8896 112.282 42.1979C113.094 41.9683 113.792 41.6196 114.256 41.1576C113.792 41.5629 113.097 41.9088 112.282 42.0817C110.134 42.8896 107.581 42.66 104.564 41.5629Z" fill="#4CA928"/>
<path d="M53.9364 38.8501C53.9364 40.4829 52.6828 41.75 51.1757 41.75C50.3097 41.75 49.6573 41.3957 49.2356 40.8117V43.8109H48.0391V36.0891H49.2356V36.8714C49.6573 36.2988 50.3097 35.9445 51.1757 35.9445C52.6828 35.9445 53.9364 37.2031 53.9364 38.8444V38.8501ZM52.7398 38.8501C52.7398 37.8239 51.9848 37.0841 50.9877 37.0841C49.9906 37.0841 49.3011 37.7559 49.2356 38.7055V38.9918C49.3011 39.9415 50.0333 40.6133 50.9877 40.6133C51.9421 40.6133 52.7398 39.8734 52.7398 38.8473V38.8501Z" fill="#4CA928" stroke="#4CA928" stroke-width="0.25" stroke-linejoin="round"/>
<path d="M57.8134 35.9927V37.2825C57.0271 37.2286 56.218 37.5915 56.218 38.7707V41.6055H55.0215V36.0891H56.218V36.9168C56.5514 36.245 57.1382 35.9898 57.8134 35.9898V35.9927Z" fill="#4CA928" stroke="#4CA928" stroke-width="0.25" stroke-linejoin="round"/>
<path d="M58.1475 38.8501C58.1475 37.206 59.4551 35.9502 61.0733 35.9502C62.6915 35.9502 63.9992 37.2088 63.9992 38.8501C63.9992 40.4914 62.7029 41.75 61.0733 41.75C59.4437 41.75 58.1475 40.4829 58.1475 38.8501ZM62.8026 38.8501C62.8026 37.8466 62.0476 37.1067 61.0733 37.1067C60.099 37.1067 59.344 37.8466 59.344 38.8501C59.344 39.8536 60.099 40.5935 61.0733 40.5935C62.0476 40.5935 62.8026 39.8536 62.8026 38.8501Z" fill="#4CA928" stroke="#4CA928" stroke-width="0.25" stroke-linejoin="round"/>
<path d="M70.6854 33.8865V41.6083H69.4888V40.8146C69.0672 41.3872 68.4148 41.7529 67.5373 41.7529C66.0302 41.7529 64.7881 40.4857 64.7881 38.8529C64.7881 37.2201 66.0302 35.953 67.5373 35.953C68.4119 35.953 69.0672 36.3073 69.4888 36.8913V33.8921H70.6854V33.8865ZM69.4888 38.8501C69.4888 37.8239 68.7339 37.0841 67.7367 37.0841C66.7396 37.0841 65.9846 37.8239 65.9846 38.8501C65.9846 39.8763 66.7396 40.6161 67.7367 40.6161C68.7339 40.6161 69.4888 39.8763 69.4888 38.8501Z" fill="#4CA928" stroke="#4CA928" stroke-width="0.25" stroke-linejoin="round"/>
<path d="M76.5395 36.0919V41.6083H75.343V40.979C74.9868 41.5204 74.4455 41.75 73.7675 41.75C72.7362 41.75 71.9385 40.9676 71.9385 39.6438V36.0919H73.135V39.5673C73.135 40.2845 73.5681 40.636 74.1436 40.636C74.776 40.636 75.3401 40.2618 75.3401 39.2583V36.0919H76.5367H76.5395Z" fill="#4CA928" stroke="#4CA928" stroke-width="0.25" stroke-linejoin="round"/>
<path d="M80.5401 41.75C78.8649 41.75 77.6143 40.4829 77.6143 38.8501C77.6143 37.2173 78.8678 35.9502 80.5401 35.9502C81.882 35.9502 83.0016 36.8006 83.2779 38.0252H82.013C81.7794 37.4724 81.2153 37.1209 80.5401 37.1209C79.5658 37.1209 78.8108 37.8608 78.8108 38.8529C78.8108 39.8451 79.5658 40.585 80.5401 40.585C81.2267 40.585 81.7936 40.2221 82.013 39.6807H83.2779C83.0016 40.894 81.882 41.7557 80.5401 41.7557V41.75Z" fill="#4CA928" stroke="#4CA928" stroke-width="0.25" stroke-linejoin="round"/>
<path d="M86.9581 37.24H85.9382V41.6083H84.7416V37.24H83.7217V36.0919H84.7416V34.3259H85.9382V36.0919H86.9581V37.24Z" fill="#4CA928" stroke="#4CA928" stroke-width="0.25" stroke-linejoin="round"/>
</svg>
